<svg width="33" height="38" viewBox="0 0 33 38" fill="none" xmlns="http://www.w3.org/2000/svg">
<g clip-path="url(#clip0_514_1059)">
<path d="M27.5897 20.0851C27.5708 16.9703 29.0296 14.6228 31.9755 12.8919C30.3279 10.6083 27.8352 9.35233 24.5494 9.11027C21.4382 8.87278 18.0343 10.8641 16.788 10.8641C15.4708 10.8641 12.4588 9.19248 10.0888 9.19248C5.19785 9.26556 0 12.9649 0 20.4916C0 22.7158 0.420171 25.013 1.26051 27.3788C2.38412 30.4936 6.43476 38.1253 10.6601 38.0019C12.8695 37.9517 14.4322 36.4856 17.3073 36.4856C20.0974 36.4856 21.5421 38.0019 24.0064 38.0019C28.2695 37.9426 31.933 31.0051 33 27.8812C27.2828 25.2733 27.5897 20.2449 27.5897 20.0851ZM22.6279 6.15534C25.0215 3.40593 24.8043 0.903143 24.7335 0.00341797C22.6185 0.122163 20.173 1.39639 18.7803 2.96292C17.2459 4.64362 16.3442 6.72167 16.5378 9.0646C18.8227 9.23359 20.9094 8.09637 22.6279 6.15534Z" fill="#1E1E1E"/>
</g>
<defs>
<clipPath id="clip0_514_1059">
<rect width="33" height="38" fill="white" transform="translate(0 0.00341797)"/>
</clipPath>
</defs>
</svg>
