<svg width="25" height="25" viewBox="0 0 25 25" fill="none" xmlns="http://www.w3.org/2000/svg">
<path d="M13.7524 24.3724H2.28182C1.55156 24.3724 0.959961 23.7793 0.959961 23.048V1.70131C0.959961 0.969767 1.55166 0.376953 2.28182 0.376953H23.5882C24.3182 0.376953 24.91 0.969767 24.91 1.70131V23.048C24.91 23.7794 24.3181 24.3724 23.5882 24.3724H17.4851V15.0801H20.5982L21.0644 11.4587H17.4851V9.14663C17.4851 8.09815 17.7757 7.38364 19.2764 7.38364L21.1904 7.3828V4.14379C20.8594 4.09966 19.7232 4.00106 18.4013 4.00106C15.6417 4.00106 13.7524 5.68872 13.7524 8.78798V11.4587H10.6313V15.0801H13.7524V24.3724Z" fill="#0A142F"/>
</svg>
