<svg width="35" height="38" viewBox="0 0 35 38" fill="none" xmlns="http://www.w3.org/2000/svg">
<g clip-path="url(#clip0_514_1053)">
<path d="M18.9614 18.1928L25.2233 11.9503L4.99765 0.61781C3.65718 -0.10419 2.40141 -0.205523 1.30023 0.584033L18.9614 18.1928ZM26.2906 25.5015L32.8002 21.8514C34.0708 21.142 34.7675 20.1371 34.7675 19.0225C34.7675 17.9099 34.0708 16.9029 32.8023 16.1936L26.9089 12.8939L20.2744 19.5059L26.2906 25.5015ZM0.211764 2.11881C0.0762351 2.5347 0 2.99914 0 3.50792V34.5518C0 35.3561 0.177882 36.0486 0.499765 36.5996L17.6464 19.5038L0.211764 2.11881ZM18.9614 20.8127L1.91012 37.8135C2.23624 37.938 2.58776 38.0035 2.95835 38.0035C3.61906 38.0035 4.30729 37.8093 5.00823 37.4208L24.6071 26.4494L18.9614 20.8127Z" fill="white"/>
</g>
<defs>
<clipPath id="clip0_514_1053">
<rect width="35" height="38.0001" fill="white" transform="translate(0 0.00341797)"/>
</clipPath>
</defs>
</svg>
