<svg width="25" height="21" viewBox="0 0 25 21" fill="none" xmlns="http://www.w3.org/2000/svg">
<path d="M24.7762 2.74366C23.8962 3.14518 22.9487 3.4167 21.9548 3.53802C22.9698 2.91409 23.7486 1.92475 24.1155 0.746204C23.1652 1.32392 22.1151 1.74421 20.9933 1.96952C20.0992 0.988845 18.8214 0.376465 17.4072 0.376465C14.6954 0.376465 12.4954 2.63678 12.4954 5.42427C12.4954 5.82001 12.5376 6.20419 12.6219 6.57393C8.53819 6.36306 4.91835 4.35549 2.49341 1.29792C2.07027 2.04607 1.82848 2.91409 1.82848 3.83844C1.82848 5.58892 2.69584 7.13431 4.01444 8.03989C3.21035 8.01533 2.45123 7.78569 1.78771 7.41017V7.47228C1.78771 9.91891 3.48166 11.9597 5.73088 12.4219C5.31899 12.5403 4.88461 12.5995 4.43617 12.5995C4.11988 12.5995 3.81061 12.5692 3.51118 12.51C4.13675 14.5147 5.95018 15.9748 8.101 16.0138C6.41971 17.3686 4.29981 18.1759 1.99858 18.1759C1.60215 18.1759 1.20995 18.1528 0.826172 18.1066C3.00089 19.5365 5.58468 20.3727 8.35826 20.3727C17.3973 20.3727 22.3386 12.6818 22.3386 6.01065C22.3386 5.79112 22.3344 5.57159 22.3259 5.35639C23.2861 4.64435 24.1197 3.75611 24.7762 2.74366Z" fill="#0A142F"/>
</svg>
