<svg width="25" height="22" viewBox="0 0 25 22" fill="none" xmlns="http://www.w3.org/2000/svg">
<path d="M24.6313 5.23082C24.5271 7.59707 22.8964 10.8317 19.7505 14.9362C16.4947 19.228 13.7361 21.3725 11.4816 21.3725C10.0874 21.3725 8.90597 20.0678 7.94135 17.4498C7.29499 15.0477 6.65285 12.6457 6.0079 10.2509C5.28972 7.6314 4.52084 6.32238 3.69845 6.32238C3.51961 6.32238 2.89578 6.70436 1.81992 7.46974L0.693359 5.99477C1.87343 4.94326 3.0366 3.88746 4.18428 2.83453C5.75583 1.45255 6.93731 0.727222 7.7259 0.651399C9.58472 0.46828 10.731 1.76013 11.1633 4.52266C11.6238 7.50551 11.9477 9.35959 12.1265 10.0863C12.6644 12.5585 13.2531 13.7917 13.898 13.7917C14.3979 13.7917 15.1499 12.9934 16.1526 11.3954C17.1552 9.7945 17.6889 8.57847 17.7621 7.74013C17.9058 6.35815 17.3692 5.67145 16.1526 5.67145C15.5794 5.67145 14.988 5.79448 14.381 6.05199C15.5639 2.16214 17.817 0.270854 21.146 0.381012C23.6118 0.451112 24.7764 2.07058 24.6313 5.23082Z" fill="#0A142F"/>
</svg>
