<svg width="25" height="18" viewBox="0 0 25 18" fill="none" xmlns="http://www.w3.org/2000/svg">
<path fill-rule="evenodd" clip-rule="evenodd" d="M23.3181 1.64404C24.0358 2.37732 24.2701 4.04249 24.2701 4.04249C24.2701 4.04249 24.5096 5.9984 24.5096 7.95356V9.78713C24.5096 11.743 24.2701 13.6982 24.2701 13.6982C24.2701 13.6982 24.0358 15.3634 23.3181 16.0967C22.4975 16.9641 21.5876 17.0537 21.0733 17.1044C21.0167 17.11 20.9649 17.1151 20.9186 17.1207C17.5671 17.3654 12.5346 17.3729 12.5346 17.3729C12.5346 17.3729 6.30757 17.3155 4.39157 17.1297C4.30079 17.1126 4.19075 17.0993 4.06613 17.0842C3.45922 17.0108 2.50664 16.8955 1.75033 16.0967C1.03258 15.3634 0.79907 13.6982 0.79907 13.6982C0.79907 13.6982 0.55957 11.743 0.55957 9.78713V7.95356C0.55957 5.9984 0.79907 4.04249 0.79907 4.04249C0.79907 4.04249 1.03258 2.37732 1.75033 1.64404C2.57276 0.775372 3.48352 0.686715 3.99787 0.636646C4.05364 0.631218 4.10474 0.626243 4.15057 0.620777C7.50208 0.376099 12.5293 0.376099 12.5293 0.376099H12.5398C12.5398 0.376099 17.5671 0.376099 20.9186 0.620777C20.9644 0.626251 21.0155 0.631233 21.0713 0.636671C21.5853 0.686744 22.4964 0.775513 23.3181 1.64404ZM10.0615 5.21882L10.0623 12.0086L16.5325 8.62543L10.0615 5.21882Z" fill="#0A142F"/>
</svg>
